<svg width="20" height="12" viewBox="0 0 20 12" fill="none" xmlns="http://www.w3.org/2000/svg">
<path d="M19.6428 6.39032C19.468 6.61385 15.3036 11.8657 10.0002 11.8657C4.69639 11.8657 0.53197 6.61385 0.357205 6.39032L0 5.9331L0.357205 5.47589C0.53197 5.25236 4.69639 0.000237465 10.0002 0.000237465C15.3036 0.000237465 19.468 5.25236 19.6428 5.47589L20 5.9331L19.6428 6.39032ZM10.0002 1.48525C6.27027 1.48525 3.01458 4.7147 1.9197 5.93286C3.01508 7.15126 6.27051 10.3802 10.0002 10.3802C13.7297 10.3802 16.9854 7.15102 18.0806 5.93286C16.9849 4.71445 13.7295 1.48525 10.0002 1.48525Z" fill="black"/>
<path d="M9.99995 9.99609C7.75919 9.99609 5.93628 8.17343 5.93628 5.93292C5.93628 3.69191 7.75919 1.869 9.99995 1.869C12.2407 1.869 14.0636 3.69191 14.0636 5.93292C14.0636 8.17343 12.2407 9.99609 9.99995 9.99609ZM9.99995 3.35451C8.57806 3.35451 7.42154 4.51128 7.42154 5.93317C7.42154 7.35456 8.57806 8.51108 9.99995 8.51108C11.4216 8.51108 12.5784 7.35456 12.5784 5.93317C12.5784 4.51128 11.4216 3.35451 9.99995 3.35451Z" fill="black"/>
</svg>
