<svg width="100" height="101" viewBox="0 0 100 101" fill="none" xmlns="http://www.w3.org/2000/svg">
<g filter="url(#filter0_d_1112_1146)">
<path fill-rule="evenodd" clip-rule="evenodd" d="M50 90.2079C72.0914 90.2079 90 72.2527 90 50.1039C90 27.9551 72.0914 10 50 10C27.9086 10 10 27.9551 10 50.1039C10 72.2527 27.9086 90.2079 50 90.2079Z" fill="#ECECEE"/>
</g>
<path fill-rule="evenodd" clip-rule="evenodd" d="M61.7813 60.9322H38.2187C37.5455 60.9322 37 60.3936 37 59.7291V44.9828C37 44.3185 37.5455 43.7797 38.2187 43.7797H43.4238L45.3757 40.5579C45.5983 40.2681 45.947 40.0781 46.3438 40.0781H53.6562C53.9986 40.0781 54.3065 40.2187 54.5283 40.4427L54.5291 40.4416L56.5988 43.7797H61.7813C62.4545 43.7797 63 44.3185 63 44.9828V59.7291C63 60.3936 62.4545 60.9322 61.7813 60.9322ZM50 46.247C46.4444 46.247 43.5623 49.0926 43.5623 52.6022C43.5623 56.1122 46.4444 58.9574 50 58.9574C53.5556 58.9574 56.4378 56.1122 56.4378 52.6022C56.4378 49.0926 53.5556 46.247 50 46.247ZM46.2743 52.6025C46.2743 54.6336 47.9425 56.2805 50 56.2805C52.0578 56.2805 53.7257 54.6336 53.7257 52.6025C53.7257 50.5711 52.0578 48.9246 50 48.9246C47.9425 48.9246 46.2743 50.5711 46.2743 52.6025Z" fill="#414141"/>
<mask id="mask0_1112_1146" style="mask-type:luminance" maskUnits="userSpaceOnUse" x="37" y="40" width="26" height="21">
<path fill-rule="evenodd" clip-rule="evenodd" d="M61.7813 60.9322H38.2187C37.5455 60.9322 37 60.3936 37 59.7291V44.9828C37 44.3185 37.5455 43.7797 38.2187 43.7797H43.4238L45.3757 40.5579C45.5983 40.2681 45.947 40.0781 46.3438 40.0781H53.6562C53.9986 40.0781 54.3065 40.2187 54.5283 40.4427L54.5291 40.4416L56.5988 43.7797H61.7813C62.4545 43.7797 63 44.3185 63 44.9828V59.7291C63 60.3936 62.4545 60.9322 61.7813 60.9322ZM50 46.247C46.4444 46.247 43.5623 49.0926 43.5623 52.6022C43.5623 56.1122 46.4444 58.9574 50 58.9574C53.5556 58.9574 56.4378 56.1122 56.4378 52.6022C56.4378 49.0926 53.5556 46.247 50 46.247ZM46.2743 52.6025C46.2743 54.6336 47.9425 56.2805 50 56.2805C52.0578 56.2805 53.7257 54.6336 53.7257 52.6025C53.7257 50.5711 52.0578 48.9246 50 48.9246C47.9425 48.9246 46.2743 50.5711 46.2743 52.6025Z" fill="white"/>
</mask>
<g mask="url(#mask0_1112_1146)">
</g>
<defs>
<filter id="filter0_d_1112_1146" x="0" y="0" width="100" height="100.208" filterUnits="userSpaceOnUse" color-interpolation-filters="sRGB">
<feFlood flood-opacity="0" result="BackgroundImageFix"/>
<feColorMatrix in="SourceAlpha" type="matrix" values="0 0 0 0 0 0 0 0 0 0 0 0 0 0 0 0 0 0 127 0" result="hardAlpha"/>
<feOffset/>
<feGaussianBlur stdDeviation="5"/>
<feColorMatrix type="matrix" values="0 0 0 0 0 0 0 0 0 0 0 0 0 0 0 0 0 0 0.01 0"/>
<feBlend mode="normal" in2="BackgroundImageFix" result="effect1_dropShadow_1112_1146"/>
<feBlend mode="normal" in="SourceGraphic" in2="effect1_dropShadow_1112_1146" result="shape"/>
</filter>
</defs>
</svg>
